PathFileType	4	(X/Y/Z)	E:\Qualisys_Data\Carbon_Farble_Plate\Data\Amateur_Runner\S1\T2\S1T2V11_c3d.trc
DataRate	CameraRate	NumFrames	NumMarkers	Units	OrigDataRate	OrigDataStartFrame	OrigNumFrames
200.000000	200.000000	4	39	mm	200.000000	273	312
Frame#	Time	LSHO			RSHO			LICST			RICST			LASIS			LHEEL			RASIS			LTROC			RTROC			SACR			LTH1			LSK4			LTH2			LTH3			RHM5			LSK2			LTH4			RTH1			LTOE			RTH2			RTH3			RTH4			LLEP			RLEP			LSK1			LSK3			RSK1			LHM5			RSK2			LFT1			RSK3			RSK4			LLME			RLME			RTOE			RHEEL			RFT1			RFT2			LFT2			
		X1	Y1	Z1	X2	Y2	Z2	X3	Y3	Z3	X4	Y4	Z4	X5	Y5	Z5	X6	Y6	Z6	X7	Y7	Z7	X8	Y8	Z8	X9	Y9	Z9	X10	Y10	Z10	X11	Y11	Z11	X12	Y12	Z12	X13	Y13	Z13	X14	Y14	Z14	X15	Y15	Z15	X16	Y16	Z16	X17	Y17	Z17	X18	Y18	Z18	X19	Y19	Z19	X20	Y20	Z20	X21	Y21	Z21	X22	Y22	Z22	X23	Y23	Z23	X24	Y24	Z24	X25	Y25	Z25	X26	Y26	Z26	X27	Y27	Z27	X28	Y28	Z28	X29	Y29	Z29	X30	Y30	Z30	X31	Y31	Z31	X32	Y32	Z32	X33	Y33	Z33	X34	Y34	Z34	X35	Y35	Z35	X36	Y36	Z36	X37	Y37	Z37	X38	Y38	Z38	X39	Y39	Z39	

274	1.365	2183.666259765625	1529.10693359375	-532.3776245117188	2111.222900390625	1538.062744140625	-216.2620849609375	2119.587890625	1055.275634765625	-499.2198181152344	2115.18505859375	1092.579467773438	-203.0275115966797	2161.6396484375	1014.308227539062	-471.5959167480469	1638.243896484375	215.1519775390625	-369.8524780273438	2151.877197265625	1043.986328125	-210.6043701171875	2032.20751953125	947.978759765625	-509.6341247558594	2056.827392578125	955.5897827148438	-169.6222381591797	1999.733276367188	1096.082397460938	-350.8905029296875	2106.953125	770.3206176757812	-478.9090270996094	1735.97216796875	340.1152648925781	-411.5157470703125	2030.176635742188	789.929443359375	-510.385498046875	2072.57275390625	675.606689453125	-457.6147766113281	2291.110107421875	127.0704879760742	-195.7718658447266	1792.146118164062	416.6355590820312	-453.7854309082031	1994.274780273438	699.523193359375	-482.5191345214844	2228.005859375	885.5493774414062	-203.2959594726562	1822.333251953125	48.76984405517578	-375.5321044921875	2165.28271484375	845.0751342773438	-171.8291320800781	2280.58935546875	798.0864868164062	-207.5373840332031	2212.543212890625	758.35595703125	-186.8474884033203	1967.82861328125	548.365966796875	-442.0697937011719	2301.955810546875	615.25048828125	-221.0598754882812	1859.535522460938	365.2101440429688	-445.6862182617188	1792.854858398438	289.1926574707031	-438.6820068359375	2258.6474609375	426.4768981933594	-202.4724426269531	1749.85693359375	62.16276931762695	-442.2936096191406	2180.40966796875	447.1707458496094	-216.6273345947266	1628.187377929688	188.1898498535156	-344.1505126953125	2236.0888671875	329.4326782226562	-215.2957916259766	2160.4619140625	350.1278991699219	-238.4221954345703	1700.358276367188	210.6644897460938	-427.0264587402344	2172.85791015625	208.1656951904297	-218.2279205322266	2357.29736328125	138.8134307861328	-267.2164611816406	2106.056640625	176.8150787353516	-264.9302673339844	2116.35791015625	144.4748687744141	-294.2007751464844	2106.21337890625	146.9720153808594	-239.8704223632812	1619.402465820312	186.3516235351562	-396.7157287597656
275	1.37	2201.25732421875	1533.189453125	-530.8883056640625	2126.33740234375	1540.802124023438	-215.9236297607422	2137.387451171875	1058.040893554688	-498.5826721191406	2131.95361328125	1095.068115234375	-202.9202575683594	2178.83837890625	1017.003967285156	-471.3103637695312	1650.690185546875	224.9982299804688	-370.5630493164062	2168.54345703125	1046.359985351562	-210.3626251220703	2049.12255859375	952.0701293945312	-509.8636779785156	2073.551025390625	957.767333984375	-169.8143920898438	2017.243286132812	1099.09521484375	-350.3183288574219	2121.08935546875	773.7608642578125	-480.319091796875	1746.172973632812	345.722412109375	-412.1276550292969	2044.38037109375	794.2275390625	-510.6990661621094	2085.067626953125	678.6785888671875	-459.0006103515625	2325.81884765625	126.9843444824219	-195.9462280273438	1802.288696289062	422.2503051757812	-453.9747314453125	2007.086059570312	704.2218627929688	-483.2871398925781	2244.522216796875	886.939208984375	-202.7383422851562	1825.998901367188	47.86106872558594	-376.2167358398438	2180.994384765625	847.0733642578125	-172.5135192871094	2296.239990234375	799.4033203125	-207.9226379394531	2227.789306640625	759.9259643554688	-187.6881561279297	1978.497680664062	553.2181396484375	-443.4966735839844	2315.541015625	615.9635009765625	-221.2670593261719	1869.524780273438	370.9388427734375	-447.1149597167969	1802.599487304688	294.8975524902344	-440.1435852050781	2279.91748046875	425.3529663085938	-201.5383148193359	1753.608032226562	65.41893005371094	-442.334716796875	2201.014404296875	442.7060241699219	-216.0805053710938	1639.155395507812	198.4777069091797	-344.6782836914062	2261.858642578125	326.7966613769531	-214.777099609375	2185.375	344.8969116210938	-237.6149139404297	1710.898315429688	216.9437408447266	-428.24462890625	2204.20654296875	202.5744781494141	-218.2259368896484	2391.43798828125	141.7565612792969	-266.7243347167969	2138.794921875	168.5165557861328	-264.6162414550781	2152.6748046875	137.7871704101562	-294.5167541503906	2140.201171875	138.8793334960938	-239.3234558105469	1630.044921875	197.496337890625	-397.578857421875
276	1.375	2217.486572265625	1537.577758789062	-529.7515258789062	2141.486572265625	1543.5634765625	-215.5624389648438	2154.9892578125	1060.916625976562	-498.5838928222656	2148.689208984375	1097.084228515625	-202.8495941162109	2195.99755859375	1019.302978515625	-470.9944763183594	1663.051025390625	234.7160186767578	-371.1819152832031	2185.20947265625	1048.303466796875	-210.226318359375	2065.633544921875	955.260009765625	-509.7975769042969	2090.13134765625	959.9075317382812	-170.315673828125	2034.413452148438	1101.878295898438	-350.4528503417969	2135.173583984375	777.011962890625	-480.8006286621094	1756.6728515625	351.2745056152344	-412.6657409667969	2058.284912109375	798.2506713867188	-511.2712707519531	2098.06396484375	682.1439208984375	-460.7503356933594	2360.468017578125	127.4929351806641	-195.8107452392578	1812.886840820312	428.1718139648438	-453.9683532714844	2019.855346679688	708.6140747070312	-483.6974182128906	2261.122314453125	887.7994384765625	-202.0334014892578	1829.93896484375	46.67410278320312	-376.979248046875	2196.541259765625	848.623046875	-172.9703521728516	2311.71923828125	799.57421875	-208.2206573486328	2242.322021484375	760.9251708984375	-188.8296813964844	1990.158813476562	558.0618896484375	-444.569580078125	2329.310546875	616.515869140625	-221.1047668457031	1879.852416992188	376.0577392578125	-448.8289184570312	1812.921752929688	300.3207397460938	-441.0998229980469	2300.826416015625	423.885498046875	-201.4256286621094	1757.8642578125	68.66512298583984	-442.1668090820312	2221.1064453125	437.6907348632812	-215.9650421142578	1650.908325195312	209.2201995849609	-345.0608215332031	2286.826416015625	324.7391357421875	-214.8349761962891	2210.18798828125	339.7857666015625	-237.4686431884766	1721.087280273438	222.8361053466797	-430.0460205078125	2235.605712890625	198.0209655761719	-217.913818359375	2424.91357421875	145.2688751220703	-267.2660522460938	2169.079833984375	157.2939453125	-267.7943420410156	2186.802978515625	130.2889556884766	-294.4455871582031	2174.056884765625	130.7232971191406	-240.1336059570312	1640.952880859375	207.7127990722656	-397.74267578125
277	1.38	2234.1708984375	1541.17626953125	-528.4795532226562	2156.509765625	1545.848876953125	-215.4095306396484	2172.132568359375	1063.571533203125	-498.1740112304688	2166.393310546875	1099.19775390625	-202.1333312988281	2212.977783203125	1021.85302734375	-471.0964660644531	1676.47802734375	244.2029418945312	-372.0980529785156	2202.29833984375	1049.932495117188	-209.9750823974609	2082.3076171875	958.6386108398438	-510.1572570800781	2106.81396484375	961.716064453125	-170.70458984375	2051.686279296875	1104.225708007812	-350.2459411621094	2149.536376953125	779.8058471679688	-482.2278747558594	1767.603515625	356.4261169433594	-413.2998352050781	2072.68115234375	802.1575317382812	-511.5848693847656	2111.30615234375	685.1012573242188	-462.4746398925781	2394.42333984375	128.9199523925781	-195.8899078369141	1824.16162109375	433.7156982421875	-454.8252868652344	2033.657104492188	713.2625732421875	-484.2892761230469	2277.412109375	888.453857421875	-201.4263458251953	1833.949096679688	45.92892074584961	-378.0705871582031	2212.1201171875	849.2197265625	-174.0751342773438	2326.647216796875	799.3839721679688	-208.2519226074219	2256.837646484375	761.6723022460938	-190.3549346923828	2002.414794921875	562.1032104492188	-445.6595153808594	2342.477783203125	616.2703857421875	-221.2880554199219	1890.747680664062	381.3583068847656	-449.6871948242188	1824.770751953125	305.6226196289062	-443.1441345214844	2321.119384765625	422.0232238769531	-201.2574310302734	1762.449340820312	72.39335632324219	-442.0181274414062	2241.336181640625	433.0539855957031	-214.9998779296875	1663.642578125	219.8066558837891	-345.3023376464844	2311.81103515625	322.7738037109375	-214.4720764160156	2234.587158203125	334.4126586914062	-237.3097229003906	1731.595703125	228.5410308837891	-430.9773864746094	2266.034912109375	193.3634338378906	-217.490478515625	2458.130126953125	149.6237945556641	-268.07763671875	2201.8115234375	150.0067596435547	-268.0773620605469	2220.912109375	123.5918045043945	-294.3650512695312	2208.25341796875	123.0096054077148	-240.2883453369141	1653.238159179688	218.8324279785156	-398.3473510742188
